<?xml version="1.0" encoding="UTF-8" standalone="no"?>
<!DOCTYPE svg PUBLIC "-//W3C//DTD SVG 1.1//EN" "http://www.w3.org/Graphics/SVG/1.1/DTD/svg11.dtd">
<svg width="100%" height="100%" viewBox="0 0 218 44" version="1.1" xmlns="http://www.w3.org/2000/svg" xmlns:xlink="http://www.w3.org/1999/xlink" xml:space="preserve" xmlns:serif="http://www.serif.com/" style="fill-rule:evenodd;clip-rule:evenodd;stroke-linecap:round;stroke-linejoin:round;">
    <path d="M218,8L218,36C218,40.415 214.415,44 210,44L8,44C3.585,44 0,40.415 0,36L0,8C0,3.585 3.585,0 8,0L210,0C214.415,0 218,3.585 218,8Z" style="fill:white;fill-opacity:0.82;"/>
    <g transform="matrix(1,0,0,1,-49.32,-24.4259)">
        <path d="M65.75,38.5C65.336,38.5 65,38.836 65,39.25L65,52.75C65,53.164 65.336,53.5 65.75,53.5C66.164,53.5 66.501,53.164 66.501,52.75L66.501,39.25C66.501,38.836 66.164,38.5 65.75,38.5ZM93.524,38.5C93.11,38.498 92.771,38.83 92.767,39.243L92.767,52.748C92.767,53.162 93.103,53.498 93.517,53.498C93.931,53.498 94.268,53.162 94.268,52.748L94.268,41.922L99.555,50.591C99.77,50.945 100.233,51.058 100.587,50.841C100.689,50.779 100.775,50.693 100.837,50.591L106.125,41.922L106.125,52.752C106.125,53.166 106.461,53.502 106.875,53.502C107.289,53.502 107.625,53.166 107.625,52.752L107.625,39.25C107.625,38.836 107.289,38.5 106.875,38.5C106.614,38.5 106.37,38.637 106.235,38.861L100.197,48.76L94.159,38.861C94.024,38.639 93.783,38.502 93.524,38.5ZM77.855,38.575C77.8,38.575 77.747,38.582 77.694,38.595C73.53,39.555 71.012,43.829 72.187,47.932C72.302,48.33 72.716,48.561 73.114,48.448C73.513,48.333 73.743,47.919 73.628,47.521C72.683,44.223 74.684,40.829 78.028,40.057C78.431,39.964 78.683,39.562 78.59,39.157C78.51,38.814 78.203,38.573 77.851,38.575L77.855,38.575ZM81.016,38.575C80.666,38.575 80.363,38.816 80.283,39.157C80.191,39.56 80.443,39.964 80.846,40.057C83.907,40.763 85.892,43.698 85.405,46.8C85.341,47.209 85.62,47.594 86.029,47.658C86.439,47.722 86.824,47.443 86.888,47.034C87.495,43.167 84.998,39.475 81.182,38.597C81.127,38.584 81.071,38.577 81.014,38.577L81.016,38.575ZM82.05,46.541C81.782,46.541 81.536,46.685 81.401,46.917C81.193,47.275 81.317,47.735 81.676,47.941L87.891,51.527C88.249,51.735 88.71,51.611 88.916,51.253C89.124,50.894 89,50.434 88.641,50.228L82.426,46.643C82.311,46.576 82.18,46.541 82.05,46.543L82.05,46.541ZM74.46,49.795C74.272,49.795 74.09,49.863 73.951,49.99C73.646,50.268 73.623,50.744 73.902,51.049C76.62,54.029 81.237,54.31 84.296,51.682C84.611,51.412 84.646,50.938 84.376,50.624C84.106,50.31 83.632,50.275 83.318,50.545C80.861,52.655 77.194,52.429 75.011,50.038C74.87,49.883 74.67,49.795 74.46,49.793L74.46,49.795Z" style="fill-rule:nonzero;"/>
    </g>
    <g transform="matrix(1,0,0,1,153.15,-24.4259)">
        <path d="M41,46L45,50L53,42" style="fill:none;fill-rule:nonzero;stroke:black;stroke-width:2px;"/>
    </g>
    <g transform="matrix(0.301407,0,0,0.301407,16.0914,13.9872)">
        <path d="M176.494,48.749L176.494,1.149L192.678,1.149C207.094,1.149 215.254,10.669 215.254,24.949C215.254,39.841 206.822,48.749 192.678,48.749L176.494,48.749ZM182.614,43.445L191.998,43.445C198.186,43.445 202.742,41.609 204.918,38.413C207.298,35.013 208.318,31.137 208.318,24.949C208.318,18.693 207.298,14.953 204.918,11.553C202.606,8.221 197.914,6.453 191.998,6.453L182.614,6.453L182.614,43.445ZM237.579,49.565C226.971,49.565 220.579,42.833 220.579,31.749C220.579,21.413 227.039,13.933 237.579,13.933C247.983,13.933 254.511,21.481 254.511,31.749C254.511,42.425 247.779,49.565 237.579,49.565ZM237.579,44.737C245.263,44.737 247.915,39.773 247.915,31.749C247.915,23.725 245.263,18.761 237.579,18.761C229.759,18.761 227.175,23.725 227.175,31.749C227.175,39.773 229.691,44.737 237.579,44.737ZM276.291,49.565C265.887,49.565 259.427,42.901 259.427,31.749C259.427,21.277 265.887,13.933 276.291,13.933C284.927,13.933 289.823,19.101 291.183,25.561L285.471,26.649C284.451,22.705 282.411,18.829 276.291,18.829C267.995,18.829 266.159,24.269 266.159,31.749C266.159,39.433 268.063,44.669 276.291,44.669C281.527,44.669 284.247,42.629 285.539,37.733L291.319,38.345C290.095,45.213 284.179,49.565 276.291,49.565ZM309.832,49.565C302.216,49.565 295.348,46.029 295.416,37.597L300.992,37.053C300.924,41.813 304.392,44.737 309.696,44.737C315.272,44.737 318.06,42.833 318.06,39.229C318.06,35.353 311.804,34.877 307.112,33.653C301.604,32.225 296.164,30.593 296.164,23.861C296.164,16.789 302.692,13.933 308.744,13.933C315.952,13.933 322.208,16.789 322.956,25.085L317.244,25.969C317.108,21.277 314.048,18.761 308.676,18.761C305.344,18.761 301.876,20.325 301.876,23.453C301.876,26.581 305.956,27.465 310.036,28.349C316.836,29.777 323.84,30.933 323.84,38.889C323.84,47.185 316.7,49.565 309.832,49.565Z" style="fill-rule:nonzero;"/>
    </g>
</svg>
