<?xml version="1.0" encoding="UTF-8" standalone="no"?>
<!DOCTYPE svg PUBLIC "-//W3C//DTD SVG 1.1//EN" "http://www.w3.org/Graphics/SVG/1.1/DTD/svg11.dtd">
<svg width="100%" height="100%" viewBox="0 0 218 44" version="1.1" xmlns="http://www.w3.org/2000/svg" xmlns:xlink="http://www.w3.org/1999/xlink" xml:space="preserve" xmlns:serif="http://www.serif.com/" style="fill-rule:evenodd;clip-rule:evenodd;stroke-linecap:round;stroke-linejoin:round;">
    <path d="M218,8L218,36C218,40.415 214.415,44 210,44L8,44C3.585,44 0,40.415 0,36L0,8C0,3.585 3.585,0 8,0L210,0C214.415,0 218,3.585 218,8Z" style="fill:white;fill-opacity:0.82;"/>
    <path d="M16.74,14.5C16.332,14.5 16,14.836 16,15.25L16,28.75C16,29.164 16.332,29.5 16.74,29.5C17.149,29.5 17.481,29.164 17.481,28.75L17.481,15.25C17.481,14.836 17.149,14.5 16.74,14.5ZM44.148,14.5C43.739,14.498 43.405,14.83 43.401,15.243L43.401,28.748C43.401,29.162 43.733,29.498 44.141,29.498C44.549,29.498 44.881,29.162 44.881,28.748L44.881,17.922L50.099,26.591C50.311,26.945 50.768,27.058 51.117,26.841C51.218,26.779 51.303,26.693 51.364,26.591L56.582,17.922L56.582,28.752C56.582,29.166 56.914,29.502 57.323,29.502C57.731,29.502 58.063,29.166 58.063,28.752L58.063,15.25C58.063,14.836 57.731,14.5 57.323,14.5C57.065,14.5 56.825,14.637 56.691,14.861L50.733,24.76L44.774,14.861C44.641,14.639 44.403,14.502 44.148,14.5ZM28.686,14.575C28.631,14.575 28.579,14.582 28.526,14.595C24.418,15.555 21.932,19.829 23.092,23.932C23.206,24.33 23.614,24.561 24.007,24.448C24.4,24.333 24.628,23.919 24.514,23.521C23.581,20.223 25.556,16.829 28.856,16.057C29.254,15.964 29.503,15.562 29.411,15.157C29.332,14.814 29.029,14.573 28.681,14.575L28.686,14.575ZM31.805,14.575C31.46,14.575 31.16,14.816 31.082,15.157C30.99,15.56 31.239,15.964 31.637,16.057C34.657,16.763 36.617,19.698 36.136,22.8C36.073,23.209 36.348,23.594 36.752,23.658C37.156,23.722 37.536,23.443 37.599,23.034C38.198,19.168 35.734,15.476 31.969,14.597C31.914,14.584 31.859,14.577 31.803,14.577L31.805,14.575ZM32.825,22.541C32.56,22.541 32.318,22.685 32.185,22.917C31.98,23.275 32.102,23.735 32.456,23.941L38.589,27.527C38.943,27.735 39.397,27.611 39.6,27.253C39.805,26.894 39.683,26.434 39.329,26.228L33.196,22.643C33.083,22.576 32.954,22.541 32.825,22.543L32.825,22.541ZM25.335,25.795C25.15,25.795 24.97,25.863 24.833,25.99C24.531,26.268 24.51,26.744 24.785,27.049C27.467,30.029 32.023,30.31 35.042,27.682C35.352,27.412 35.387,26.938 35.12,26.624C34.854,26.31 34.386,26.275 34.076,26.545C31.652,28.655 28.033,28.429 25.879,26.038C25.739,25.883 25.543,25.795 25.335,25.793L25.335,25.795Z" style="fill-rule:nonzero;"/>
    <path d="M187.531,25.333L191.531,29.333L195.531,25.333" style="fill:none;fill-rule:nonzero;stroke:black;stroke-width:1.5px;"/>
    <path d="M187.531,18.667L191.531,14.667L195.531,18.667" style="fill:none;fill-rule:nonzero;stroke:black;stroke-width:1.5px;"/>
    <g transform="matrix(0.301407,0,0,0.301407,16.0914,13.9872)">
        <path d="M176.494,48.749L176.494,1.149L192.678,1.149C207.094,1.149 215.254,10.669 215.254,24.949C215.254,39.841 206.822,48.749 192.678,48.749L176.494,48.749ZM182.614,43.445L191.998,43.445C198.186,43.445 202.742,41.609 204.918,38.413C207.298,35.013 208.318,31.137 208.318,24.949C208.318,18.693 207.298,14.953 204.918,11.553C202.606,8.221 197.914,6.453 191.998,6.453L182.614,6.453L182.614,43.445ZM237.579,49.565C226.971,49.565 220.579,42.833 220.579,31.749C220.579,21.413 227.039,13.933 237.579,13.933C247.983,13.933 254.511,21.481 254.511,31.749C254.511,42.425 247.779,49.565 237.579,49.565ZM237.579,44.737C245.263,44.737 247.915,39.773 247.915,31.749C247.915,23.725 245.263,18.761 237.579,18.761C229.759,18.761 227.175,23.725 227.175,31.749C227.175,39.773 229.691,44.737 237.579,44.737ZM276.291,49.565C265.887,49.565 259.427,42.901 259.427,31.749C259.427,21.277 265.887,13.933 276.291,13.933C284.927,13.933 289.823,19.101 291.183,25.561L285.471,26.649C284.451,22.705 282.411,18.829 276.291,18.829C267.995,18.829 266.159,24.269 266.159,31.749C266.159,39.433 268.063,44.669 276.291,44.669C281.527,44.669 284.247,42.629 285.539,37.733L291.319,38.345C290.095,45.213 284.179,49.565 276.291,49.565ZM309.832,49.565C302.216,49.565 295.348,46.029 295.416,37.597L300.992,37.053C300.924,41.813 304.392,44.737 309.696,44.737C315.272,44.737 318.06,42.833 318.06,39.229C318.06,35.353 311.804,34.877 307.112,33.653C301.604,32.225 296.164,30.593 296.164,23.861C296.164,16.789 302.692,13.933 308.744,13.933C315.952,13.933 322.208,16.789 322.956,25.085L317.244,25.969C317.108,21.277 314.048,18.761 308.676,18.761C305.344,18.761 301.876,20.325 301.876,23.453C301.876,26.581 305.956,27.465 310.036,28.349C316.836,29.777 323.84,30.933 323.84,38.889C323.84,47.185 316.7,49.565 309.832,49.565Z" style="fill-rule:nonzero;"/>
    </g>
</svg>
