<?xml version="1.0" encoding="UTF-8" standalone="no"?>
<!DOCTYPE svg PUBLIC "-//W3C//DTD SVG 1.1//EN" "http://www.w3.org/Graphics/SVG/1.1/DTD/svg11.dtd">
<svg width="100%" height="100%" viewBox="0 0 218 44" version="1.1" xmlns="http://www.w3.org/2000/svg" xmlns:xlink="http://www.w3.org/1999/xlink" xml:space="preserve" xmlns:serif="http://www.serif.com/" style="fill-rule:evenodd;clip-rule:evenodd;stroke-linecap:round;stroke-linejoin:round;">
    <path d="M218,8L218,36C218,40.415 214.415,44 210,44L8,44C3.585,44 0,40.415 0,36L0,8C0,3.585 3.585,0 8,0L210,0C214.415,0 218,3.585 218,8Z" style="fill:white;fill-opacity:0.82;"/>
    <g transform="matrix(1,0,0,1,-49.32,-24.4259)">
        <path d="M65.75,38.5C65.336,38.5 65,38.836 65,39.25L65,52.75C65,53.164 65.336,53.5 65.75,53.5C66.164,53.5 66.501,53.164 66.501,52.75L66.501,39.25C66.501,38.836 66.164,38.5 65.75,38.5ZM93.524,38.5C93.11,38.498 92.771,38.83 92.767,39.243L92.767,52.748C92.767,53.162 93.103,53.498 93.517,53.498C93.931,53.498 94.268,53.162 94.268,52.748L94.268,41.922L99.555,50.591C99.77,50.945 100.233,51.058 100.587,50.841C100.689,50.779 100.775,50.693 100.837,50.591L106.125,41.922L106.125,52.752C106.125,53.166 106.461,53.502 106.875,53.502C107.289,53.502 107.625,53.166 107.625,52.752L107.625,39.25C107.625,38.836 107.289,38.5 106.875,38.5C106.614,38.5 106.37,38.637 106.235,38.861L100.197,48.76L94.159,38.861C94.024,38.639 93.783,38.502 93.524,38.5ZM77.855,38.575C77.8,38.575 77.747,38.582 77.694,38.595C73.53,39.555 71.012,43.829 72.187,47.932C72.302,48.33 72.716,48.561 73.114,48.448C73.513,48.333 73.743,47.919 73.628,47.521C72.683,44.223 74.684,40.829 78.028,40.057C78.431,39.964 78.683,39.562 78.59,39.157C78.51,38.814 78.203,38.573 77.851,38.575L77.855,38.575ZM81.016,38.575C80.666,38.575 80.363,38.816 80.283,39.157C80.191,39.56 80.443,39.964 80.846,40.057C83.907,40.763 85.892,43.698 85.405,46.8C85.341,47.209 85.62,47.594 86.029,47.658C86.439,47.722 86.824,47.443 86.888,47.034C87.495,43.167 84.998,39.475 81.182,38.597C81.127,38.584 81.071,38.577 81.014,38.577L81.016,38.575ZM82.05,46.541C81.782,46.541 81.536,46.685 81.401,46.917C81.193,47.275 81.317,47.735 81.676,47.941L87.891,51.527C88.249,51.735 88.71,51.611 88.916,51.253C89.124,50.894 89,50.434 88.641,50.228L82.426,46.643C82.311,46.576 82.18,46.541 82.05,46.543L82.05,46.541ZM74.46,49.795C74.272,49.795 74.09,49.863 73.951,49.99C73.646,50.268 73.623,50.744 73.902,51.049C76.62,54.029 81.237,54.31 84.296,51.682C84.611,51.412 84.646,50.938 84.376,50.624C84.106,50.31 83.632,50.275 83.318,50.545C80.861,52.655 77.194,52.429 75.011,50.038C74.87,49.883 74.67,49.795 74.46,49.793L74.46,49.795Z" style="fill-rule:nonzero;"/>
    </g>
    <g transform="matrix(1,0,0,1,-49.32,-24.4259)">
        <path d="M203.711,42.786L205.668,42.786L201.421,54.151C200.568,56.441 199.818,57.461 198.382,57.461C197.882,57.461 197.32,57.399 196.8,57.253L196.841,55.504C197.216,55.629 197.653,55.733 198.132,55.733C198.902,55.733 199.256,54.88 199.943,53.111L195.884,42.786L197.882,42.786L199.86,48.406C200.11,49.114 200.443,50.134 200.776,51.175C201.192,49.905 201.421,49.239 201.712,48.406L203.711,42.786Z" style="fill-rule:nonzero;"/>
    </g>
    <g transform="matrix(1,0,0,1,-49.32,-24.4259)">
        <path d="M191.006,42.536C193.337,42.536 194.607,43.868 194.607,46.449L194.607,53.194L192.692,53.194L192.692,47.074C192.692,46.096 192.692,45.242 192.068,44.659C191.485,44.097 190.715,44.076 190.319,44.076C189.695,44.076 189.174,44.285 188.779,44.638C188.279,45.096 187.821,45.783 187.821,47.449L187.821,53.194L185.906,53.194L185.906,47.074C185.906,46.096 185.906,45.242 185.282,44.659C184.699,44.097 183.928,44.076 183.533,44.076C182.888,44.076 182.367,44.305 181.993,44.638C181.493,45.096 181.035,45.783 181.035,47.449L181.035,53.194L179.182,53.194L179.182,42.786L181.035,42.786L181.035,44.347C181.16,44.035 181.368,43.681 181.805,43.327C182.284,42.931 183.033,42.536 184.241,42.536C185.885,42.536 187.072,43.348 187.571,44.742C187.78,44.18 188.092,43.743 188.571,43.327C189.07,42.911 189.736,42.536 191.006,42.536Z" style="fill-rule:nonzero;"/>
    </g>
    <g transform="matrix(1,0,0,1,-49.32,-24.4259)">
        <path d="M176.189,44.597C176.813,45.596 177.146,47.074 177.063,48.552L169.174,48.552C169.215,50.842 170.173,51.945 172.13,51.945C173.899,51.945 174.857,51.196 175.106,49.613L176.917,49.759C176.459,52.195 174.794,53.444 172.151,53.444C170.548,53.444 169.299,52.965 168.404,51.924C167.529,50.946 167.134,49.593 167.134,47.969C167.134,46.429 167.571,45.076 168.445,44.097C169.361,43.056 170.631,42.536 172.13,42.536C173.774,42.536 175.335,43.244 176.189,44.597ZM172.151,44.056C170.985,44.056 170.111,44.493 169.694,45.18C169.32,45.804 169.195,46.512 169.195,47.032L175.148,47.032C175.127,46.47 174.919,45.679 174.586,45.18C174.045,44.389 173.275,44.056 172.151,44.056Z" style="fill-rule:nonzero;"/>
    </g>
    <g transform="matrix(1,0,0,1,-49.32,-24.4259)">
        <path d="M163.115,38.622L164.989,38.622L164.989,53.194L163.115,53.194L163.115,51.674C162.345,52.861 161.221,53.444 159.826,53.444C157.058,53.444 155.038,51.383 155.038,47.99C155.038,44.701 156.953,42.536 159.764,42.536C161.221,42.536 162.324,43.036 163.115,44.139L163.115,38.622ZM160.159,51.966C162.158,51.966 163.178,50.634 163.178,48.011C163.178,46.075 162.74,44.035 160.201,44.035C157.869,44.035 157.099,45.492 157.099,47.99C157.099,50.425 157.724,51.966 160.159,51.966Z" style="fill-rule:nonzero;"/>
    </g>
    <g transform="matrix(1,0,0,1,-49.32,-24.4259)">
        <path d="M153.851,51.653L153.893,53.194C153.497,53.256 153.143,53.277 152.727,53.277C151.582,53.277 150.958,52.736 150.853,51.653C150.271,52.84 149.126,53.444 147.356,53.444C145.608,53.444 143.859,52.486 143.859,50.446C143.859,48.198 145.753,47.573 147.398,47.261L150.833,46.595C150.833,45.658 150.791,45.138 150.479,44.701C150.187,44.285 149.5,44.014 148.584,44.014C146.773,44.014 146.045,44.68 146.045,46.262L144.213,46.012C144.255,44.763 144.692,43.847 145.504,43.306C146.253,42.807 147.356,42.536 148.689,42.536C151.311,42.536 152.644,43.702 152.644,45.971L152.644,50.946C152.644,51.487 152.644,51.737 153.247,51.737C153.414,51.737 153.58,51.716 153.851,51.653ZM150.833,49.26L150.833,47.99L147.689,48.677C146.586,48.926 145.774,49.239 145.774,50.425C145.774,51.404 146.628,51.945 147.648,51.945C149.917,51.945 150.833,50.758 150.833,49.26Z" style="fill-rule:nonzero;"/>
    </g>
    <g transform="matrix(1,0,0,1,-49.32,-24.4259)">
        <path d="M137.88,53.444C134.695,53.444 132.717,51.404 132.717,47.99C132.717,44.784 134.695,42.536 137.88,42.536C140.523,42.536 142.022,44.118 142.438,46.096L140.69,46.429C140.378,45.221 139.753,44.035 137.88,44.035C135.34,44.035 134.778,45.7 134.778,47.99C134.778,50.342 135.361,51.945 137.88,51.945C139.483,51.945 140.315,51.32 140.711,49.822L142.48,50.009C142.105,52.111 140.294,53.444 137.88,53.444Z" style="fill-rule:nonzero;"/>
    </g>
    <g transform="matrix(1,0,0,1,-49.32,-24.4259)">
        <path d="M130.02,53.194L128.397,48.843L122.214,48.843L120.611,53.194L118.613,53.194L124.317,38.622L126.315,38.622L131.998,53.194L130.02,53.194ZM122.839,47.178L127.772,47.178L126.128,42.786C125.836,42.016 125.503,41.058 125.295,40.434L125.274,40.434C125.024,41.204 124.795,41.87 124.462,42.786L122.839,47.178Z" style="fill-rule:nonzero;"/>
    </g>
</svg>
