<?xml version="1.0" encoding="UTF-8" standalone="no"?>
<!DOCTYPE svg PUBLIC "-//W3C//DTD SVG 1.1//EN" "http://www.w3.org/Graphics/SVG/1.1/DTD/svg11.dtd">
<svg width="100%" height="100%" viewBox="0 0 218 44" version="1.1" xmlns="http://www.w3.org/2000/svg" xmlns:xlink="http://www.w3.org/1999/xlink" xml:space="preserve" xmlns:serif="http://www.serif.com/" style="fill-rule:evenodd;clip-rule:evenodd;stroke-linejoin:round;stroke-miterlimit:2;">
    <path d="M218,8L218,36C218,40.415 214.415,44 210,44L8,44C3.585,44 0,40.415 0,36L0,8C0,3.585 3.585,0 8,0L210,0C214.415,0 218,3.585 218,8Z" style="fill:white;fill-opacity:0.82;"/>
    <g>
        <clipPath id="_clip1">
            <rect x="16" y="14.5" width="149.531" height="15"/>
        </clipPath>
        <g clip-path="url(#_clip1)">
            <path d="M16.74,14.5C16.332,14.5 16,14.836 16,15.25L16,28.75C16,29.164 16.332,29.5 16.74,29.5C17.149,29.5 17.481,29.164 17.481,28.75L17.481,15.25C17.481,14.836 17.149,14.5 16.74,14.5ZM44.148,14.5C43.739,14.498 43.405,14.83 43.401,15.243L43.401,28.748C43.401,29.162 43.733,29.498 44.141,29.498C44.549,29.498 44.881,29.162 44.881,28.748L44.881,17.922L50.099,26.591C50.311,26.945 50.768,27.058 51.117,26.841C51.218,26.779 51.303,26.693 51.364,26.591L56.582,17.922L56.582,28.752C56.582,29.166 56.914,29.502 57.323,29.502C57.731,29.502 58.063,29.166 58.063,28.752L58.063,15.25C58.063,14.836 57.731,14.5 57.323,14.5C57.065,14.5 56.825,14.637 56.691,14.861L50.733,24.76L44.774,14.861C44.641,14.639 44.403,14.502 44.148,14.5ZM28.686,14.575C28.631,14.575 28.579,14.582 28.526,14.595C24.418,15.555 21.932,19.829 23.092,23.932C23.206,24.33 23.614,24.561 24.007,24.448C24.4,24.333 24.628,23.919 24.514,23.521C23.581,20.223 25.556,16.829 28.856,16.057C29.254,15.964 29.503,15.562 29.411,15.157C29.332,14.814 29.029,14.573 28.681,14.575L28.686,14.575ZM31.805,14.575C31.46,14.575 31.16,14.816 31.082,15.157C30.99,15.56 31.239,15.964 31.637,16.057C34.657,16.763 36.617,19.698 36.136,22.8C36.073,23.209 36.348,23.594 36.752,23.658C37.156,23.722 37.536,23.443 37.599,23.034C38.198,19.168 35.734,15.476 31.969,14.597C31.914,14.584 31.859,14.577 31.803,14.577L31.805,14.575ZM32.825,22.541C32.56,22.541 32.318,22.685 32.185,22.917C31.98,23.275 32.102,23.735 32.456,23.941L38.589,27.527C38.943,27.735 39.397,27.611 39.6,27.253C39.805,26.894 39.683,26.434 39.329,26.228L33.196,22.643C33.083,22.576 32.954,22.541 32.825,22.543L32.825,22.541ZM25.335,25.795C25.15,25.795 24.97,25.863 24.833,25.99C24.531,26.268 24.51,26.744 24.785,27.049C27.467,30.029 32.023,30.31 35.042,27.682C35.352,27.412 35.387,26.938 35.12,26.624C34.854,26.31 34.386,26.275 34.076,26.545C31.652,28.655 28.033,28.429 25.879,26.038C25.739,25.883 25.543,25.795 25.335,25.793L25.335,25.795Z" style="fill-rule:nonzero;"/>
            <path d="M69.209,14.752L73.804,14.752C76.209,14.752 79.156,15.084 79.156,19.017C79.156,20.798 78.245,22.123 77.061,22.559C78.341,23.076 78.826,24.134 78.826,25.625C78.826,27.301 78.942,28.297 79.601,29.186L79.582,29.248L77.662,29.248C77.216,28.522 77.081,27.839 77.081,25.83C77.081,23.822 76.364,23.242 73.979,23.242L70.954,23.242L70.954,29.248L69.209,29.248L69.209,14.752ZM73.785,21.649C75.451,21.649 77.43,21.503 77.43,19.103C77.43,16.369 75.451,16.369 73.804,16.369L70.954,16.369L70.954,21.649L73.785,21.649Z" style="fill-rule:nonzero;"/>
            <path d="M82.373,27.985C81.558,27.012 81.189,25.664 81.189,24.049C81.189,22.517 81.595,21.172 82.41,20.198C83.264,19.163 84.446,18.645 85.841,18.645C87.373,18.645 88.827,19.349 89.622,20.696C90.203,21.689 90.513,23.16 90.437,24.631L83.087,24.631C83.126,26.91 84.018,28.007 85.841,28.007C87.491,28.007 88.382,27.261 88.613,25.689L90.299,25.835C89.873,28.257 88.323,29.5 85.859,29.5C84.365,29.5 83.203,29.024 82.369,27.989L82.373,27.985ZM88.655,23.118C88.635,22.559 88.441,21.773 88.13,21.276C87.626,20.488 86.909,20.159 85.861,20.159C84.813,20.159 83.961,20.594 83.572,21.276C83.223,21.897 83.107,22.601 83.107,23.118L88.655,23.118Z" style="fill-rule:nonzero;"/>
            <path d="M92.029,25.852L93.619,25.686C93.6,27.135 94.589,28.027 96.101,28.027C97.691,28.027 98.486,27.447 98.486,26.35C98.486,25.169 96.701,25.025 95.364,24.651C93.794,24.215 92.243,23.72 92.243,21.669C92.243,19.515 94.104,18.645 95.83,18.645C97.885,18.645 99.669,19.515 99.881,22.041L98.252,22.311C98.213,20.882 97.341,20.116 95.808,20.116C94.858,20.116 93.868,20.592 93.868,21.546C93.868,22.499 95.032,22.767 96.194,23.036C98.134,23.472 100.13,23.824 100.13,26.246C100.13,28.668 98.095,29.498 96.135,29.498C93.964,29.498 92.005,28.421 92.025,25.852L92.029,25.852Z" style="fill-rule:nonzero;"/>
            <path d="M101.729,24.072C101.729,20.924 103.57,18.645 106.576,18.645C109.581,18.645 111.405,20.944 111.405,24.072C111.405,27.2 109.485,29.498 106.576,29.498C103.666,29.498 101.729,27.447 101.729,24.072ZM104.464,27.239C104.929,27.757 105.608,28.027 106.578,28.027C107.548,28.027 108.264,27.717 108.729,27.158C109.291,26.474 109.524,25.419 109.524,24.072C109.524,22.725 109.291,21.649 108.71,20.966C108.245,20.428 107.565,20.116 106.576,20.116C105.586,20.116 104.927,20.386 104.462,20.904C103.841,21.587 103.608,22.685 103.608,24.072C103.608,25.459 103.839,26.556 104.462,27.239L104.464,27.239Z" style="fill-rule:nonzero;"/>
            <path d="M113.561,18.895L115.306,18.895L115.306,20.468C115.791,19.309 116.741,18.645 118.292,18.645C119.572,18.645 120.483,19.019 121.181,19.805C121.918,20.654 121.937,21.999 121.937,23.096L121.937,29.246L120.133,29.246L120.133,23.2C120.133,22.247 120.153,21.4 119.552,20.798C119.008,20.218 118.368,20.198 117.827,20.198C116.973,20.198 115.306,20.57 115.306,23.532L115.306,29.248L113.561,29.248L113.561,18.895Z" style="fill-rule:nonzero;"/>
            <path d="M124.049,26.516C124.049,24.28 125.814,23.658 127.345,23.348L130.545,22.685C130.545,21.753 130.506,21.236 130.215,20.8C129.944,20.386 129.304,20.116 128.45,20.116C126.764,20.116 126.085,20.78 126.085,22.353L124.379,22.105C124.418,20.862 124.825,19.951 125.58,19.413C126.279,18.915 127.306,18.648 128.547,18.648C130.991,18.648 132.231,19.807 132.231,22.065L132.231,27.014C132.231,27.551 132.231,27.801 132.793,27.801C132.948,27.801 133.103,27.781 133.354,27.717L133.393,29.25C133.024,29.312 132.694,29.332 132.308,29.332C131.242,29.332 130.659,28.794 130.563,27.717C130.019,28.898 128.953,29.498 127.304,29.498C125.655,29.498 124.047,28.544 124.047,26.516L124.049,26.516ZM127.579,28.007C129.693,28.007 130.545,26.826 130.545,25.335L130.545,24.072L127.616,24.755C126.587,25.003 125.832,25.315 125.832,26.494C125.832,27.467 126.627,28.005 127.577,28.005L127.579,28.007Z" style="fill-rule:nonzero;"/>
            <path d="M135.2,18.895L136.945,18.895L136.945,20.468C137.43,19.309 138.38,18.645 139.93,18.645C141.21,18.645 142.121,19.019 142.82,19.805C143.556,20.654 143.576,21.999 143.576,23.096L143.576,29.246L141.772,29.246L141.772,23.2C141.772,22.247 141.791,21.4 141.191,20.798C140.647,20.218 140.007,20.198 139.465,20.198C138.611,20.198 136.945,20.57 136.945,23.532L136.945,29.248L135.2,29.248L135.2,18.895Z" style="fill-rule:nonzero;"/>
            <path d="M145.688,24.072C145.688,20.882 147.529,18.645 150.498,18.645C152.959,18.645 154.357,20.22 154.744,22.187L153.114,22.519C152.824,21.318 152.241,20.136 150.495,20.136C149.39,20.136 148.691,20.488 148.246,21.11C147.761,21.813 147.606,22.848 147.606,24.072C147.606,26.412 148.15,28.007 150.495,28.007C151.989,28.007 152.765,27.385 153.132,25.894L154.781,26.08C154.431,28.171 152.745,29.498 150.495,29.498C147.529,29.498 145.686,27.469 145.686,24.072L145.688,24.072Z" style="fill-rule:nonzero;"/>
            <path d="M157.454,27.985C156.639,27.012 156.27,25.664 156.27,24.049C156.27,22.517 156.677,21.172 157.491,20.198C158.345,19.163 159.527,18.645 160.923,18.645C162.454,18.645 163.908,19.349 164.703,20.696C165.284,21.689 165.595,23.16 165.518,24.631L158.168,24.631C158.208,26.91 159.099,28.007 160.923,28.007C162.572,28.007 163.463,27.261 163.697,25.689L165.383,25.835C164.957,28.257 163.406,29.5 160.942,29.5C159.448,29.5 158.286,29.024 157.452,27.989L157.454,27.985ZM163.736,23.118C163.716,22.559 163.522,21.773 163.212,21.276C162.707,20.488 161.991,20.159 160.942,20.159C159.894,20.159 159.042,20.594 158.653,21.276C158.304,21.897 158.188,22.601 158.188,23.118L163.736,23.118Z" style="fill-rule:nonzero;"/>
        </g>
    </g>
</svg>
