<?xml version="1.0" encoding="UTF-8" standalone="no"?>
<!DOCTYPE svg PUBLIC "-//W3C//DTD SVG 1.1//EN" "http://www.w3.org/Graphics/SVG/1.1/DTD/svg11.dtd">
<svg width="100%" height="100%" viewBox="0 0 218 44" version="1.1" xmlns="http://www.w3.org/2000/svg" xmlns:xlink="http://www.w3.org/1999/xlink" xml:space="preserve" xmlns:serif="http://www.serif.com/" style="fill-rule:evenodd;clip-rule:evenodd;stroke-linejoin:round;stroke-miterlimit:2;">
    <path d="M218,8L218,36C218,40.415 214.415,44 210,44L8,44C3.585,44 0,40.415 0,36L0,8C0,3.585 3.585,0 8,0L210,0C214.415,0 218,3.585 218,8Z" style="fill:white;fill-opacity:0.82;"/>
    <g>
        <g>
            <clipPath id="_clip1">
                <rect x="16" y="14.5" width="149.531" height="15"/>
            </clipPath>
            <g clip-path="url(#_clip1)">
                <path d="M16.74,14.5C16.332,14.5 16,14.836 16,15.25L16,28.75C16,29.164 16.332,29.5 16.74,29.5C17.149,29.5 17.481,29.164 17.481,28.75L17.481,15.25C17.481,14.836 17.149,14.5 16.74,14.5ZM44.148,14.5C43.739,14.498 43.405,14.83 43.401,15.243L43.401,28.748C43.401,29.162 43.733,29.498 44.141,29.498C44.549,29.498 44.881,29.162 44.881,28.748L44.881,17.922L50.099,26.591C50.311,26.945 50.768,27.058 51.117,26.841C51.218,26.779 51.303,26.693 51.364,26.591L56.582,17.922L56.582,28.752C56.582,29.166 56.914,29.502 57.323,29.502C57.731,29.502 58.063,29.166 58.063,28.752L58.063,15.25C58.063,14.836 57.731,14.5 57.323,14.5C57.065,14.5 56.825,14.637 56.691,14.861L50.733,24.76L44.774,14.861C44.641,14.639 44.403,14.502 44.148,14.5ZM28.686,14.575C28.631,14.575 28.579,14.582 28.526,14.595C24.418,15.555 21.932,19.829 23.092,23.932C23.206,24.33 23.614,24.561 24.007,24.448C24.4,24.333 24.628,23.919 24.514,23.521C23.581,20.223 25.556,16.829 28.856,16.057C29.254,15.964 29.503,15.562 29.411,15.157C29.332,14.814 29.029,14.573 28.681,14.575L28.686,14.575ZM31.805,14.575C31.46,14.575 31.16,14.816 31.082,15.157C30.99,15.56 31.239,15.964 31.637,16.057C34.657,16.763 36.617,19.698 36.136,22.8C36.073,23.209 36.348,23.594 36.752,23.658C37.156,23.722 37.536,23.443 37.599,23.034C38.198,19.168 35.734,15.476 31.969,14.597C31.914,14.584 31.859,14.577 31.803,14.577L31.805,14.575ZM32.825,22.541C32.56,22.541 32.318,22.685 32.185,22.917C31.98,23.275 32.102,23.735 32.456,23.941L38.589,27.527C38.943,27.735 39.397,27.611 39.6,27.253C39.805,26.894 39.683,26.434 39.329,26.228L33.196,22.643C33.083,22.576 32.954,22.541 32.825,22.543L32.825,22.541ZM25.335,25.795C25.15,25.795 24.97,25.863 24.833,25.99C24.531,26.268 24.51,26.744 24.785,27.049C27.467,30.029 32.023,30.31 35.042,27.682C35.352,27.412 35.387,26.938 35.12,26.624C34.854,26.31 34.386,26.275 34.076,26.545C31.652,28.655 28.033,28.429 25.879,26.038C25.739,25.883 25.543,25.795 25.335,25.793L25.335,25.795Z" style="fill-rule:nonzero;"/>
            </g>
        </g>
        <g transform="matrix(1,0,0,1,-1.32298,0)">
            <path d="M76.274,29.37C78.977,29.37 81.921,28.448 81.921,25.044C81.921,22.061 79.538,21.56 76.754,21.12C74.852,20.819 72.73,20.319 72.73,18.737C72.73,17.095 74.432,16.374 75.793,16.374C78.096,16.374 79.498,17.575 79.538,19.678L81.42,19.338C81.12,16.014 78.737,14.872 75.833,14.872C73.551,14.872 70.867,15.954 70.867,18.817C70.867,21.5 73.27,22.261 75.453,22.782C77.555,23.282 80.038,23.242 80.038,25.185C80.038,27.227 78.276,27.848 76.214,27.848C74.051,27.848 72.409,26.606 72.409,24.364L70.487,24.564C70.487,27.828 73.19,29.37 76.274,29.37Z" style="fill-rule:nonzero;"/>
            <path d="M90.671,19.117L90.671,24.744C90.671,27.648 88.989,27.868 88.088,27.868C87.507,27.868 86.846,27.848 86.266,27.287C85.665,26.706 85.685,25.925 85.685,25.004L85.685,19.117L83.823,19.117L83.823,25.104C83.823,26.166 83.843,27.427 84.624,28.248C85.345,29.009 86.286,29.37 87.587,29.37C89.009,29.37 90.13,28.769 90.671,27.628L90.671,29.129L92.473,29.129L92.473,19.117L90.671,19.117Z" style="fill-rule:nonzero;"/>
            <path d="M100.082,18.877C98.741,18.877 97.659,19.438 96.918,20.579L96.918,19.117L95.116,19.117L95.116,33.134L96.918,33.134L96.918,27.828C97.679,28.889 98.741,29.37 100.142,29.37C102.846,29.37 104.688,27.287 104.688,24.123C104.688,20.859 102.745,18.877 100.082,18.877ZM99.722,27.928C97.279,27.928 96.858,25.966 96.858,24.103C96.858,21.58 97.84,20.299 99.762,20.299C102.105,20.299 102.705,21.781 102.705,24.123C102.705,26.526 101.964,27.928 99.722,27.928Z" style="fill-rule:nonzero;"/>
            <path d="M111.716,18.877C110.375,18.877 109.293,19.438 108.552,20.579L108.552,19.117L106.75,19.117L106.75,33.134L108.552,33.134L108.552,27.828C109.313,28.889 110.375,29.37 111.776,29.37C114.479,29.37 116.322,27.287 116.322,24.123C116.322,20.859 114.379,18.877 111.716,18.877ZM111.356,27.928C108.913,27.928 108.492,25.966 108.492,24.103C108.492,21.58 109.473,20.299 111.396,20.299C113.739,20.299 114.339,21.781 114.339,24.123C114.339,26.526 113.598,27.928 111.356,27.928Z" style="fill-rule:nonzero;"/>
            <path d="M122.789,29.37C125.793,29.37 127.775,27.267 127.775,24.123C127.775,21.1 125.853,18.877 122.789,18.877C119.686,18.877 117.783,21.08 117.783,24.123C117.783,27.387 119.666,29.37 122.789,29.37ZM122.789,27.948C120.467,27.948 119.726,26.486 119.726,24.123C119.726,21.76 120.487,20.299 122.789,20.299C125.052,20.299 125.833,21.76 125.833,24.123C125.833,26.486 125.052,27.948 122.789,27.948Z" style="fill-rule:nonzero;"/>
            <path d="M134.744,18.897C133.102,19.017 131.9,19.918 131.62,20.879L131.62,19.117L129.818,19.117L129.818,29.129L131.62,29.129L131.62,24.384C131.62,21.16 133.002,20.559 134.904,20.559C135.084,20.559 135.244,20.559 135.364,20.579L135.404,18.877C135.264,18.877 134.884,18.877 134.744,18.897Z" style="fill-rule:nonzero;"/>
            <path d="M140.23,29.229C140.671,29.229 141.071,29.169 141.332,29.129L141.291,27.507C140.951,27.567 140.591,27.607 140.37,27.607C139.63,27.607 139.329,27.487 139.329,26.827L139.329,20.619L141.372,20.619L141.372,19.117L139.329,19.117L139.329,16.334L137.547,16.334L137.547,19.117L136.105,19.117L136.105,20.619L137.547,20.619L137.547,26.887C137.547,28.509 138.368,29.229 140.23,29.229Z" style="fill-rule:nonzero;"/>
        </g>
    </g>
</svg>
